<?xml version="1.0" standalone="no"?>
<!DOCTYPE svg PUBLIC "-//W3C//DTD SVG 20010904//EN"
 "http://www.w3.org/TR/2001/REC-SVG-20010904/DTD/svg10.dtd">
<svg version="1.0" xmlns="http://www.w3.org/2000/svg"
 width="550.000000pt" height="550.000000pt" viewBox="0 0 550.000000 550.000000"
 preserveAspectRatio="xMidYMid meet">
<metadata>
Created by potrace 1.14, written by Peter Selinger 2001-2017
</metadata>
<g transform="translate(0.000000,550.000000) scale(0.100000,-0.100000)"
fill="#000000" stroke="none">
<path d="M3290 3799 c0 -10 -4 -19 -9 -19 -5 0 -12 -17 -16 -37 -13 -62 -14
-83 -6 -83 4 0 8 -6 9 -12 5 -52 12 -79 28 -118 10 -25 17 -49 15 -55 -3 -5
-3 -31 -2 -58 1 -32 -3 -52 -14 -63 -9 -9 -14 -23 -11 -30 3 -8 1 -14 -4 -14
-6 0 -10 -24 -10 -54 0 -46 -4 -56 -25 -70 -36 -23 -108 -46 -163 -51 -39 -4
-162 -17 -182 -19 -3 -1 -24 -16 -47 -33 -22 -18 -46 -33 -52 -33 -33 0 -55
-86 -29 -117 5 -7 9 -43 7 -80 -1 -37 -2 -86 -2 -108 -1 -48 13 -198 19 -204
2 -2 -1 -10 -7 -18 -9 -9 -8 -13 0 -13 6 0 11 -15 11 -34 0 -25 -6 -38 -24
-50 -14 -8 -36 -27 -49 -40 -14 -14 -28 -22 -31 -18 -4 3 -26 7 -49 8 -39 2
-112 35 -130 59 -4 6 -9 1 -13 -12 -4 -13 -10 -20 -15 -17 -5 3 -9 -4 -9 -15
0 -11 -4 -23 -10 -26 -5 -3 -10 3 -10 13 0 20 12 47 42 92 9 14 19 36 23 50 8
24 7 24 -16 -5 -61 -75 -75 -152 -43 -240 23 -63 20 -143 -4 -137 -7 1 -12 -5
-12 -13 0 -8 6 -15 13 -15 8 0 7 -3 -3 -9 -8 -6 -18 -7 -22 -5 -4 3 -8 -2 -8
-11 0 -9 5 -13 10 -10 6 3 10 0 10 -7 0 -11 2 -10 9 0 7 11 9 10 15 -3 3 -9
10 -14 15 -10 5 3 12 1 16 -5 9 -14 26 -12 24 3 -3 26 1 47 11 47 6 0 10 -7
10 -15 0 -9 10 -15 26 -15 21 0 24 3 19 21 -5 15 -4 19 4 15 6 -4 11 -2 11 3
0 6 10 10 23 10 16 -1 18 -2 5 -6 -27 -7 -22 -17 20 -38 48 -24 62 -26 62 -11
0 15 47 39 61 31 17 -11 9 -44 -13 -56 -32 -17 -88 -29 -88 -18 0 5 -3 8 -7 7
-12 -2 -65 12 -90 24 -17 9 -27 6 -49 -11 -25 -19 -29 -20 -50 -6 -15 10 -25
11 -29 4 -5 -6 -12 -6 -23 3 -11 10 -16 10 -19 1 -6 -16 -33 -5 -33 14 0 8 -5
11 -11 8 -6 -4 -8 -9 -5 -12 8 -9 -18 -31 -31 -26 -7 3 -13 -1 -13 -8 0 -9 -3
-10 -8 -3 -4 5 -17 10 -29 10 -16 0 -24 -8 -27 -26 -8 -47 -6 -109 6 -137 16
-41 18 -56 9 -72 -14 -22 -47 17 -46 53 1 21 -9 39 -32 62 -21 22 -34 45 -36
66 -2 19 -8 32 -15 30 -16 -3 -15 15 1 21 6 3 1 6 -13 6 -14 1 -31 5 -37 9
-14 9 -34 97 -24 109 3 4 -1 2 -10 -5 -16 -12 -19 -7 -33 83 -1 6 -6 19 -10
30 -30 75 -35 95 -26 100 6 4 7 12 3 18 -9 15 -14 32 -20 80 -4 27 -9 37 -19
33 -19 -7 -18 3 3 26 15 17 15 18 -5 18 -11 0 -23 -8 -25 -17 -3 -10 -5 -3 -6
15 0 17 -5 32 -11 32 -5 0 -10 12 -10 28 -1 25 -2 26 -15 8 -15 -20 -37 -13
-28 9 3 8 2 23 -2 33 -7 16 -8 15 -15 -3 -8 -19 -9 -19 -9 3 -1 12 2 22 7 22
4 0 12 11 19 25 6 14 7 25 2 25 -5 0 -9 -5 -9 -11 0 -5 -4 -8 -9 -5 -5 4 -12
0 -14 -6 -3 -7 -4 6 -2 30 2 23 -1 42 -6 42 -5 0 -8 3 -8 8 4 25 -2 56 -9 45
-6 -9 -12 -7 -25 8 -10 11 -22 17 -28 13 -7 -4 -3 -13 10 -25 20 -19 20 -19
-19 -76 -32 -48 -38 -65 -35 -101 1 -23 11 -52 20 -62 21 -23 33 -26 32 -7 -1
46 6 78 22 98 11 13 22 21 25 18 20 -20 35 -365 17 -396 -6 -10 -11 -14 -11
-10 0 5 -9 2 -21 -6 -25 -18 -56 -11 -65 15 -3 11 -9 17 -12 13 -3 -3 -12 5
-19 17 l-14 23 7 -25 c11 -39 49 -66 99 -69 24 -1 46 3 50 9 12 19 37 -20 43
-66 2 -24 8 -44 11 -44 4 0 8 -8 9 -17 5 -53 15 -92 21 -89 4 3 6 -8 5 -24 -1
-16 4 -41 12 -55 8 -15 14 -36 14 -46 0 -11 5 -19 10 -19 6 0 10 -7 10 -15 0
-18 20 -57 35 -67 6 -4 6 -8 1 -8 -5 0 -2 -7 5 -16 10 -13 13 -71 11 -272 -1
-141 -5 -259 -9 -263 -7 -6 -75 -28 -218 -72 -65 -20 -168 -62 -225 -92 -25
-13 -84 -38 -130 -55 -47 -17 -94 -35 -105 -40 -11 -6 -69 -31 -130 -56 -245
-102 -293 -123 -360 -154 -38 -18 -92 -40 -120 -50 -53 -19 -227 -92 -310
-130 -27 -13 -75 -33 -105 -45 l-55 -21 -3 -267 -2 -267 2505 0 2505 0 0 248
0 248 -78 32 c-43 17 -109 42 -147 56 -39 13 -108 42 -154 65 -47 23 -102 46
-123 53 -21 6 -55 26 -76 43 -20 18 -64 41 -97 53 -33 12 -114 44 -180 72 -66
29 -147 61 -179 71 -32 11 -118 46 -191 79 -72 33 -136 60 -141 60 -6 0 -29
16 -51 35 -23 19 -45 35 -51 35 -5 0 -26 13 -46 29 -20 16 -76 42 -124 57 -48
15 -93 33 -100 39 -21 19 -34 181 -30 360 4 149 7 175 26 211 36 70 60 141 77
233 l17 88 39 -1 c47 -1 91 37 115 101 14 36 16 67 10 201 -7 156 -7 159 19
218 14 32 24 67 21 76 -2 10 0 18 5 18 5 0 9 17 9 39 0 42 -17 101 -30 101 -4
0 -10 9 -13 20 -3 11 -12 20 -20 20 -22 0 -47 -28 -41 -45 4 -8 1 -15 -5 -15
-6 0 -16 -12 -21 -26 -6 -14 -14 -22 -20 -19 -14 9 -13 21 9 65 14 28 15 37 5
33 -10 -4 -14 4 -14 28 -1 19 -2 63 -2 100 -1 36 2 71 7 79 5 9 4 11 -3 6 -11
-7 -17 37 -13 86 3 25 -19 60 -33 55 -14 -6 -18 14 -19 110 0 40 -4 70 -8 68
-4 -3 -9 7 -12 20 -2 14 -1 28 4 31 5 3 3 13 -3 24 -7 10 -16 16 -20 14 -4 -3
-8 0 -8 5 0 6 5 11 10 11 12 0 13 27 2 32 -5 2 -15 23 -23 47 -14 44 -41 72
-56 58 -4 -5 -2 -11 4 -15 6 -4 15 -19 18 -35 4 -15 10 -25 14 -23 4 3 12 -8
18 -23 9 -25 8 -28 -8 -24 -10 3 -17 8 -14 12 2 4 -5 15 -15 24 -18 15 -20 15
-29 0 -7 -14 -9 -14 -15 5 -4 12 -12 22 -17 22 -6 0 -7 5 -4 10 3 6 2 10 -4
10 -5 0 -23 14 -40 31 -17 17 -31 27 -31 22 0 -4 -9 5 -19 20 -10 16 -30 35
-45 42 -24 13 -26 12 -26 -6z m323 -799 c-3 -12 -8 -19 -11 -16 -5 6 5 36 12
36 2 0 2 -9 -1 -20z m-590 -131 c3 -13 1 -19 -6 -16 -15 5 -22 37 -9 37 5 0
12 -9 15 -21z m187 -165 c0 6 7 3 14 -6 7 -10 16 -15 20 -11 4 4 9 -3 13 -15
5 -20 9 -23 31 -21 4 0 9 -10 12 -23 4 -14 15 -24 28 -26 33 -5 27 -22 -8 -22
-16 0 -30 -4 -30 -10 0 -5 8 -6 17 -3 12 5 15 2 10 -10 -3 -9 -2 -17 3 -17 21
0 9 -31 -16 -40 -15 -6 -22 -15 -18 -21 3 -6 3 -14 -2 -18 -12 -8 -34 -93 -34
-131 0 -17 -4 -38 -9 -48 -17 -32 -39 -87 -46 -113 -8 -33 -38 -47 -95 -43
-74 4 -90 9 -120 36 -47 41 -39 123 12 140 10 4 10 10 -1 30 -7 14 -10 35 -6
47 4 12 2 21 -4 21 -6 0 -8 12 -4 32 4 19 2 29 -4 25 -5 -3 -10 -1 -10 6 -1 7
-3 28 -6 47 -15 98 -27 176 -27 181 0 10 54 -3 79 -20 19 -12 25 -13 29 -3 2
8 15 11 36 7 24 -5 36 -2 49 13 15 16 25 18 52 12 24 -5 35 -4 35 4z m116 -69
c1 -14 -2 -22 -7 -19 -11 6 -12 44 -1 44 4 0 8 -11 8 -25z m54 9 c0 -8 -4 -12
-10 -9 -5 3 -10 1 -10 -4 0 -6 -4 -11 -9 -11 -5 0 -7 9 -4 20 6 24 33 27 33 4z
m372 -75 c-4 -59 -11 -79 -26 -79 -9 0 -10 15 -2 65 11 74 33 85 28 14z
m-1880 -29 c6 0 8 -3 5 -7 -10 -9 -47 27 -47 46 1 10 7 5 16 -11 8 -16 20 -28
26 -28z m648 -464 c0 -2 -9 -6 -20 -9 -11 -3 -20 -1 -20 4 0 5 9 9 20 9 11 0
20 -2 20 -4z m60 -30 c0 -11 -19 -15 -25 -6 -3 5 1 10 9 10 9 0 16 -2 16 -4z
m-275 -216 c3 -5 1 -10 -4 -10 -6 0 -11 5 -11 10 0 6 2 10 4 10 3 0 8 -4 11
-10z m459 -193 c3 -12 9 -16 18 -12 10 6 11 5 1 -6 -7 -7 -13 -21 -13 -31 0
-24 -70 -95 -101 -103 -15 -4 -50 0 -78 9 -28 8 -49 11 -45 5 7 -12 -71 -4
-110 11 -14 5 -26 7 -26 4 0 -3 -11 7 -25 22 -13 14 -22 30 -20 35 3 4 -3 14
-13 21 -10 7 -21 21 -25 31 -8 22 2 45 13 28 3 -7 14 -9 24 -5 14 5 15 9 4 16
-9 7 -7 8 7 3 11 -4 25 -7 30 -7 48 1 241 14 242 16 2 2 27 -2 57 -7 41 -8 56
-15 60 -30z"/>
<path d="M2648 1493 c7 -3 16 -2 19 1 4 3 -2 6 -13 5 -11 0 -14 -3 -6 -6z"/>
<path d="M3470 3793 c0 -7 5 -15 11 -18 6 -4 8 -14 4 -24 -5 -12 -3 -13 6 -4
9 9 8 17 -5 34 -9 13 -16 18 -16 12z"/>
<path d="M1789 3354 c8 -17 7 -25 -4 -34 -16 -14 -10 -34 7 -24 7 5 9 2 5 -8
-6 -17 16 -19 30 -3 4 4 2 5 -4 1 -7 -4 -13 -4 -14 1 -1 4 -2 21 -3 36 -2 15
-9 33 -16 40 -10 10 -10 8 -1 -9z"/>
<path d="M1790 3249 c0 -5 5 -7 10 -4 6 3 10 8 10 11 0 2 -4 4 -10 4 -5 0 -10
-5 -10 -11z"/>
<path d="M1780 3210 c0 -5 5 -10 10 -10 6 0 10 5 10 10 0 6 -4 10 -10 10 -5 0
-10 -4 -10 -10z"/>
<path d="M1810 3190 c0 -5 5 -10 11 -10 5 0 7 5 4 10 -3 6 -8 10 -11 10 -2 0
-4 -4 -4 -10z"/>
<path d="M1790 3181 c0 -6 4 -13 10 -16 6 -3 7 1 4 9 -7 18 -14 21 -14 7z"/>
<path d="M1810 3140 c0 -5 5 -10 10 -10 6 0 10 5 10 10 0 6 -4 10 -10 10 -5 0
-10 -4 -10 -10z"/>
<path d="M2214 3142 c2 -4 -14 -8 -38 -8 -25 0 -64 -10 -98 -27 -59 -29 -73
-33 -63 -18 3 5 1 12 -4 16 -6 3 -15 -4 -21 -15 -9 -17 -8 -20 8 -20 10 0 19
-7 19 -15 0 -8 -4 -15 -9 -15 -16 0 -8 -45 18 -100 14 -30 24 -66 23 -80 -3
-29 18 -73 31 -65 5 3 11 1 15 -5 4 -6 11 -8 16 -5 5 3 23 0 41 -8 59 -27 120
-38 288 -52 41 -3 120 38 120 63 0 13 2 14 9 4 6 -10 12 -5 21 18 12 28 11 82
-4 210 -2 14 -4 31 -5 38 0 6 -6 12 -12 12 -6 0 -20 10 -31 23 -11 12 -16 15
-12 7 5 -10 1 -9 -14 4 -12 10 -28 16 -37 13 -8 -4 -15 -1 -15 5 0 7 -4 7 -13
-1 -8 -6 -17 -8 -21 -4 -10 10 -33 13 -113 16 -40 1 -73 5 -73 10 0 4 -7 7
-16 7 -8 0 -13 -4 -10 -8z m84 -137 c9 -10 12 -15 5 -11 -6 3 -14 3 -17 -2 -4
-7 -15 -9 -76 -14 -39 -3 -57 3 -57 20 0 24 9 28 72 27 40 -1 61 -7 73 -20z
m-28 -231 c0 -2 -14 -4 -31 -4 -16 0 -28 4 -25 9 5 8 56 3 56 -5z"/>
<path d="M1792 3112 c-9 -6 -6 -14 12 -31 25 -24 37 -18 32 15 -3 21 -24 29
-44 16z m34 -24 c0 -10 -1 -18 -3 -18 -1 0 -7 8 -12 18 -7 13 -6 19 2 19 7 0
13 -9 13 -19z"/>
<path d="M1760 3040 c-3 -36 -1 -49 23 -104 11 -27 23 -44 25 -38 2 7 -4 26
-14 44 -9 18 -20 53 -24 78 -5 30 -8 36 -10 20z"/>
<path d="M1805 3040 c4 -6 11 -8 16 -5 14 9 11 15 -7 15 -8 0 -12 -5 -9 -10z"/>
<path d="M1680 2972 c0 -4 -16 -25 -35 -45 -30 -32 -35 -44 -35 -86 0 -28 5
-62 12 -78 l12 -28 4 28 c2 15 9 27 16 27 8 0 19 15 25 33 7 17 21 51 32 73
18 36 19 45 7 63 -12 20 -38 29 -38 13z"/>
<path d="M2000 2945 c0 -5 5 -17 10 -25 5 -8 10 -10 10 -5 0 6 -5 17 -10 25
-5 8 -10 11 -10 5z"/>
<path d="M1770 2504 c0 -16 7 -39 15 -50 14 -18 14 -18 14 6 0 14 -6 36 -14
50 l-14 25 -1 -31z"/>
<path d="M2171 1944 c0 -11 3 -14 6 -6 3 7 2 16 -1 19 -3 4 -6 -2 -5 -13z"/>
</g>
</svg>
